<?xml version="1.0" encoding="UTF-8" standalone="no"?>
<svg
   width="112"
   height="112"
   viewBox="0 0 101.81818 101.81818"
   class="looka-1j8o68f"
   version="1.1"
   id="svg15"
   sodipodi:docname="logo_symbol.svg"
   inkscape:version="1.4.4 (dcaf3e7d9e, 2026-05-05)"
   xmlns:inkscape="http://www.inkscape.org/namespaces/inkscape"
   xmlns:sodipodi="http://sodipodi.sourceforge.net/DTD/sodipodi-0.dtd"
   xmlns="http://www.w3.org/2000/svg"
   xmlns:svg="http://www.w3.org/2000/svg">
  <sodipodi:namedview
     id="namedview15"
     pagecolor="#ffffff"
     bordercolor="#000000"
     borderopacity="0.25"
     inkscape:showpageshadow="2"
     inkscape:pageopacity="0.0"
     inkscape:pagecheckerboard="0"
     inkscape:deskcolor="#d1d1d1"
     inkscape:zoom="4.3496503"
     inkscape:cx="214.5"
     inkscape:cy="100.92765"
     inkscape:window-width="2752"
     inkscape:window-height="1124"
     inkscape:window-x="0"
     inkscape:window-y="0"
     inkscape:window-maximized="1"
     inkscape:current-layer="svg15" />
  <defs
     id="SvgjsDefs2979" />
  <g
     id="SvgjsG2980"
     featurekey="xG21Y3-0"
     transform="matrix(26.02811,0,0,26.02811,-14.089568,-18.821922)"
     fill="#208b8b">
    <g
       id="g15">
      <polygon
         fill="#208b8b"
         points="2.506,1.571 3.117,1.821 3.117,1.788 2.511,1.508 2.511,1.347 1.895,1.598 1.895,1.821 "
         id="polygon1" />
      <polygon
         fill="#208b8b"
         points="2.506,1.982 3.117,2.188 3.117,2.154 2.511,1.92 2.511,1.758 1.895,1.967 1.895,2.188 "
         id="polygon2" />
      <polygon
         fill="#208b8b"
         points="2.506,2.393 3.117,2.554 3.117,2.521 2.511,2.327 2.511,2.17 1.895,2.333 1.895,2.554 "
         id="polygon3" />
      <polygon
         fill="#208b8b"
         points="2.506,2.819 3.117,2.921 3.117,2.89 2.511,2.757 2.511,2.599 1.895,2.7 1.895,2.921 "
         id="polygon4" />
      <polygon
         fill="#208b8b"
         points="2.511,3.171 2.511,3.013 1.895,3.066 1.895,3.287 2.506,3.236 3.117,3.287 3.117,3.257 "
         id="polygon5" />
      <polygon
         fill="#208b8b"
         points="1.895,3.653 2.506,3.653 3.117,3.653 3.117,3.623 2.511,3.587 2.511,3.434 1.895,3.434 "
         id="polygon6" />
      <polygon
         fill="#208b8b"
         points="4.421,2.154 3.818,1.92 3.818,1.758 3.2,1.967 3.2,2.188 3.811,1.982 4.421,2.188 "
         id="polygon7" />
      <polygon
         fill="#208b8b"
         points="4.421,2.521 3.818,2.327 3.818,2.17 3.2,2.333 3.2,2.554 3.811,2.393 4.421,2.554 "
         id="polygon8" />
      <polygon
         fill="#208b8b"
         points="4.421,2.89 3.818,2.757 3.818,2.599 3.2,2.7 3.2,2.921 3.811,2.819 4.421,2.921 "
         id="polygon9" />
      <polygon
         fill="#208b8b"
         points="4.421,3.257 3.818,3.171 3.818,3.013 3.2,3.066 3.2,3.287 3.811,3.236 4.421,3.287 "
         id="polygon10" />
      <polygon
         fill="#208b8b"
         points="4.421,3.623 3.818,3.587 3.818,3.434 3.2,3.434 3.2,3.653 3.811,3.653 4.421,3.653 "
         id="polygon11" />
      <polygon
         fill="#208b8b"
         points="1.8,2.521 1.195,2.327 1.195,2.17 0.579,2.333 0.579,2.554 1.189,2.393 1.8,2.554 "
         id="polygon12" />
      <polygon
         fill="#208b8b"
         points="1.8,2.89 1.195,2.757 1.195,2.599 0.579,2.7 0.579,2.921 1.189,2.819 1.8,2.921 "
         id="polygon13" />
      <polygon
         fill="#208b8b"
         points="1.8,3.257 1.195,3.171 1.195,3.013 0.579,3.066 0.579,3.287 1.189,3.236 1.8,3.287 "
         id="polygon14" />
      <polygon
         fill="#208b8b"
         points="1.8,3.623 1.195,3.587 1.195,3.434 0.579,3.434 0.579,3.653 1.189,3.653 1.8,3.653 "
         id="polygon15" />
    </g>
  </g>
</svg>
