<svg xmlns="http://www.w3.org/2000/svg" width="429.00000000000006" height="88.0229112683248" viewBox="0 0 390 80.02082842574981" class="looka-1j8o68f"><defs id="SvgjsDefs3180"></defs><g id="SvgjsG3181" featurekey="xG21Y3-0" transform="matrix(26.028110307501635,0,0,26.028110307501635,4.929724231245915,-15.05986465867172)" fill="#208B8B"><g xmlns="http://www.w3.org/2000/svg"><polygon fill="#208B8B" points="3.117,1.788 2.511,1.508 2.511,1.347 1.895,1.598 1.895,1.821 2.506,1.571 3.117,1.821  "></polygon><polygon fill="#208B8B" points="3.117,2.154 2.511,1.92 2.511,1.758 1.895,1.967 1.895,2.188 2.506,1.982 3.117,2.188  "></polygon><polygon fill="#208B8B" points="3.117,2.521 2.511,2.327 2.511,2.17 1.895,2.333 1.895,2.554 2.506,2.393 3.117,2.554  "></polygon><polygon fill="#208B8B" points="3.117,2.89 2.511,2.757 2.511,2.599 1.895,2.7 1.895,2.921 2.506,2.819 3.117,2.921  "></polygon><polygon fill="#208B8B" points="1.895,3.066 1.895,3.287 2.506,3.236 3.117,3.287 3.117,3.257 2.511,3.171 2.511,3.013  "></polygon><polygon fill="#208B8B" points="3.117,3.653 3.117,3.623 2.511,3.587 2.511,3.434 1.895,3.434 1.895,3.653 2.506,3.653  "></polygon><polygon fill="#208B8B" points="3.818,1.758 3.2,1.967 3.2,2.188 3.811,1.982 4.421,2.188 4.421,2.154 3.818,1.92  "></polygon><polygon fill="#208B8B" points="3.818,2.17 3.2,2.333 3.2,2.554 3.811,2.393 4.421,2.554 4.421,2.521 3.818,2.327  "></polygon><polygon fill="#208B8B" points="3.818,2.599 3.2,2.7 3.2,2.921 3.811,2.819 4.421,2.921 4.421,2.89 3.818,2.757  "></polygon><polygon fill="#208B8B" points="3.818,3.013 3.2,3.066 3.2,3.287 3.811,3.236 4.421,3.287 4.421,3.257 3.818,3.171  "></polygon><polygon fill="#208B8B" points="3.818,3.434 3.2,3.434 3.2,3.653 3.811,3.653 4.421,3.653 4.421,3.623 3.818,3.587  "></polygon><polygon fill="#208B8B" points="1.195,2.17 0.579,2.333 0.579,2.554 1.189,2.393 1.8,2.554 1.8,2.521 1.195,2.327  "></polygon><polygon fill="#208B8B" points="1.195,2.599 0.579,2.7 0.579,2.921 1.189,2.819 1.8,2.921 1.8,2.89 1.195,2.757  "></polygon><polygon fill="#208B8B" points="1.195,3.013 0.579,3.066 0.579,3.287 1.189,3.236 1.8,3.287 1.8,3.257 1.195,3.171  "></polygon><polygon fill="#208B8B" points="1.195,3.434 0.579,3.434 0.579,3.653 1.189,3.653 1.8,3.653 1.8,3.623 1.195,3.587  "></polygon></g></g><g id="SvgjsG3182" featurekey="n48U4P-0" transform="matrix(3.9432173334534304,0,0,3.9432173334534304,138.42271457083666,-3.9968408111922997)" fill="#208B8B"><path d="M4.66 9.74 l2.52 0 l0 2.48 l-2.52 0 l0 4.12 c0 0.92 0.42 1.28 1.36 1.28 l1.16 0 l0 2.38 l-1.36 0 c-2.72 0 -3.94 -1.22 -3.94 -3.52 l0 -4.26 l-1.48 0 l0 -2.48 l1.48 0 l0 -2.64 l2.78 0 l0 2.64 z M18.3 17.8 c-1 1.5 -2.58 2.44 -4.86 2.44 c-3.28 0 -5.4 -2.3 -5.4 -5.34 c0 -2.96 2.2 -5.36 5.42 -5.36 c3.24 0 5.2 2.24 5.2 5.22 c0 0.4 -0.04 0.92 -0.04 0.98 l-7.84 0 c0.3 1.3 1.28 2.14 2.72 2.14 c1.24 0 2.14 -0.54 2.72 -1.36 z M13.44 11.82 c-1.3 0 -2.2 0.7 -2.56 1.86 l4.98 0 c-0.3 -1.24 -1.3 -1.86 -2.42 -1.86 z M22.36 9.74 l0 1.04 c0.5 -0.58 1.56 -1.22 2.98 -1.22 c2.4 0 3.96 1.66 3.96 4.14 l0 6.3 l-2.76 0 l0 -5.82 c0 -1.22 -0.7 -2.06 -1.88 -2.06 c-1.36 0 -2.26 0.86 -2.26 2.28 l0 5.6 l-2.78 0 l0 -10.26 l2.74 0 z M35.74 9.54 c3.16 0 5.52 2.36 5.52 5.36 c0 2.98 -2.36 5.34 -5.52 5.34 s-5.5 -2.34 -5.5 -5.34 c0 -2.98 2.36 -5.36 5.5 -5.36 z M35.74 12.06 c-1.56 0 -2.76 1.2 -2.76 2.84 s1.14 2.86 2.7 2.86 s2.82 -1.22 2.82 -2.86 s-1.2 -2.84 -2.76 -2.84 z M48.86 20 l-3.72 0 l-3.34 -10.26 l3.04 0 l2.22 7.62 l2.2 -7.62 l2.94 0 z M58.28 9.54 c3.16 0 5.52 2.36 5.52 5.36 c0 2.98 -2.36 5.34 -5.52 5.34 s-5.5 -2.34 -5.5 -5.34 c0 -2.98 2.36 -5.36 5.5 -5.36 z M58.28 12.06 c-1.56 0 -2.76 1.2 -2.76 2.84 s1.14 2.86 2.7 2.86 s2.82 -1.22 2.82 -2.86 s-1.2 -2.84 -2.76 -2.84 z"></path></g></svg>
